<svg id="Group_3790" data-name="Group 3790" xmlns="http://www.w3.org/2000/svg" xmlns:xlink="http://www.w3.org/1999/xlink" width="884.99" height="571.127" viewBox="0 0 884.99 571.127">
  <defs>
    <clipPath id="clip-path">
      <rect id="Rectangle_7811" data-name="Rectangle 7811" width="884.99" height="571.127" fill="none"/>
    </clipPath>
  </defs>
  <g id="Group_3789" data-name="Group 3789" clip-path="url(#clip-path)">
    <path id="Path_8200" data-name="Path 8200" d="M241.012,326.856c34.156-34.748,69.706-69.378,104.379-103.672L503.485,66C546.39,23.555,569.833.806,635.645.014c75.53-.908,136.767,43.023,156.376,115.906,6.906,25.671,2.114,16.662,22.632,35.438l51.994,48.369c4.58,4.313,15.133,13.118,18.343,17.885-9.261,2.794-18.4,6.488-27.52,9.8l-45.325,16.374c-83.012,30.155-107.936,39.186-110.163,122.329a159.924,159.924,0,0,1-19.453,73.12,155.1,155.1,0,0,1-19.659,27.924C612.227,524.29,522.38,559.683,446.5,569.272c-21.842,2.76-60.9,1.619-84.1,1.611l-338.361.009c-7.531.019-16.794.533-24.04-.021,14.884-13.938,29.42-29.4,43.743-43.908l62.882-63.341c28.961-29.366,60.571-58.942,87.623-89.978.44-1.331,42.528-43.053,46.764-46.788M634.766,120.644a29.729,29.729,0,1,1-28.257,31.176,29.728,29.728,0,0,1,28.257-31.176m-440.518,253c.44-1.331,42.528-43.053,46.764-46.788,16.431,65.338,75.5,119.651,143.736,124.015,2.762.177,11.366-.033,12.128,3.544,2.063,9.694,3.082,52.01-.974,61.573-75.23,6.3-151.8-48.456-187.3-111.951-5.731-10.25-10.9-18.958-14.356-30.393" fill="#956CDE" fill-rule="evenodd"/>
  </g>
</svg>
